<mxfile host="app.diagrams.net" modified="2023-08-15T20:47:46.672Z" agent="5.0 (Windows NT 10.0; Win64; x64) AppleWebKit/537.36 (KHTML, like Gecko) Chrome/115.0.0.0 Safari/537.36" etag="zKdXKL_YKQdWwW_7YITK" version="21.0.2" type="github">
  <diagram name="Page-1" id="z8YLHtu9HYEsuqBit45P">
    <mxGraphModel dx="5250" dy="4039" grid="1" gridSize="10" guides="1" tooltips="1" connect="1" arrows="1" fold="1" page="1" pageScale="1" pageWidth="827" pageHeight="1169" math="0" shadow="0">
      <root>
        <mxCell id="0" />
        <mxCell id="1" parent="0" />
        <mxCell id="txQKj6UJCxCMb0-ljYNH-3" style="edgeStyle=orthogonalEdgeStyle;rounded=0;orthogonalLoop=1;jettySize=auto;html=1;entryX=0;entryY=0.5;entryDx=0;entryDy=0;entryPerimeter=0;" parent="1" source="txQKj6UJCxCMb0-ljYNH-1" target="txQKj6UJCxCMb0-ljYNH-2" edge="1">
          <mxGeometry relative="1" as="geometry" />
        </mxCell>
        <mxCell id="txQKj6UJCxCMb0-ljYNH-4" value="&lt;div style=&quot;color: rgb(212, 212, 212); background-color: rgb(30, 30, 30); font-family: Consolas, &amp;quot;Courier New&amp;quot;, monospace; font-size: 14px; line-height: 19px;&quot;&gt;cron(0 8 * * ? *)&lt;/div&gt;" style="edgeLabel;html=1;align=center;verticalAlign=middle;resizable=0;points=[];" parent="txQKj6UJCxCMb0-ljYNH-3" vertex="1" connectable="0">
          <mxGeometry x="0.2316" y="1" relative="1" as="geometry">
            <mxPoint x="-43" y="1" as="offset" />
          </mxGeometry>
        </mxCell>
        <mxCell id="txQKj6UJCxCMb0-ljYNH-1" value="Amazon EventBridge Rule" style="sketch=0;points=[[0,0,0],[0.25,0,0],[0.5,0,0],[0.75,0,0],[1,0,0],[0,1,0],[0.25,1,0],[0.5,1,0],[0.75,1,0],[1,1,0],[0,0.25,0],[0,0.5,0],[0,0.75,0],[1,0.25,0],[1,0.5,0],[1,0.75,0]];outlineConnect=0;fontColor=#232F3E;gradientColor=#FF4F8B;gradientDirection=north;fillColor=#BC1356;strokeColor=#ffffff;dashed=0;verticalLabelPosition=bottom;verticalAlign=top;align=center;html=1;fontSize=12;fontStyle=0;aspect=fixed;shape=mxgraph.aws4.resourceIcon;resIcon=mxgraph.aws4.eventbridge;" parent="1" vertex="1">
          <mxGeometry x="90" y="300" width="110" height="110" as="geometry" />
        </mxCell>
        <mxCell id="txQKj6UJCxCMb0-ljYNH-6" style="edgeStyle=orthogonalEdgeStyle;rounded=0;orthogonalLoop=1;jettySize=auto;html=1;entryX=0;entryY=0.5;entryDx=0;entryDy=0;entryPerimeter=0;" parent="1" source="txQKj6UJCxCMb0-ljYNH-2" target="txQKj6UJCxCMb0-ljYNH-5" edge="1">
          <mxGeometry relative="1" as="geometry" />
        </mxCell>
        <mxCell id="txQKj6UJCxCMb0-ljYNH-2" value="ChatGPT-Blog Lambda" style="sketch=0;points=[[0,0,0],[0.25,0,0],[0.5,0,0],[0.75,0,0],[1,0,0],[0,1,0],[0.25,1,0],[0.5,1,0],[0.75,1,0],[1,1,0],[0,0.25,0],[0,0.5,0],[0,0.75,0],[1,0.25,0],[1,0.5,0],[1,0.75,0]];outlineConnect=0;fontColor=#232F3E;gradientColor=#F78E04;gradientDirection=north;fillColor=#D05C17;strokeColor=#ffffff;dashed=0;verticalLabelPosition=bottom;verticalAlign=top;align=center;html=1;fontSize=12;fontStyle=0;aspect=fixed;shape=mxgraph.aws4.resourceIcon;resIcon=mxgraph.aws4.lambda;" parent="1" vertex="1">
          <mxGeometry x="520" y="300" width="110" height="110" as="geometry" />
        </mxCell>
        <mxCell id="bExkr5vVACanRsSRRBvd-3" style="edgeStyle=orthogonalEdgeStyle;rounded=0;orthogonalLoop=1;jettySize=auto;html=1;entryX=0;entryY=0.5;entryDx=0;entryDy=0;entryPerimeter=0;" edge="1" parent="1" source="txQKj6UJCxCMb0-ljYNH-5" target="bExkr5vVACanRsSRRBvd-1">
          <mxGeometry relative="1" as="geometry" />
        </mxCell>
        <mxCell id="bExkr5vVACanRsSRRBvd-4" value="S3 Event Notification" style="edgeLabel;html=1;align=center;verticalAlign=middle;resizable=0;points=[];" vertex="1" connectable="0" parent="bExkr5vVACanRsSRRBvd-3">
          <mxGeometry x="0.2" relative="1" as="geometry">
            <mxPoint x="-8" as="offset" />
          </mxGeometry>
        </mxCell>
        <mxCell id="txQKj6UJCxCMb0-ljYNH-5" value="BlogPost Bucket" style="sketch=0;points=[[0,0,0],[0.25,0,0],[0.5,0,0],[0.75,0,0],[1,0,0],[0,1,0],[0.25,1,0],[0.5,1,0],[0.75,1,0],[1,1,0],[0,0.25,0],[0,0.5,0],[0,0.75,0],[1,0.25,0],[1,0.5,0],[1,0.75,0]];outlineConnect=0;fontColor=#232F3E;gradientColor=#60A337;gradientDirection=north;fillColor=#277116;strokeColor=#ffffff;dashed=0;verticalLabelPosition=bottom;verticalAlign=top;align=center;html=1;fontSize=12;fontStyle=0;aspect=fixed;shape=mxgraph.aws4.resourceIcon;resIcon=mxgraph.aws4.s3;" parent="1" vertex="1">
          <mxGeometry x="800" y="300" width="110" height="110" as="geometry" />
        </mxCell>
        <mxCell id="bExkr5vVACanRsSRRBvd-14" style="edgeStyle=orthogonalEdgeStyle;rounded=0;orthogonalLoop=1;jettySize=auto;html=1;entryX=0;entryY=0.5;entryDx=0;entryDy=0;entryPerimeter=0;" edge="1" parent="1" source="bExkr5vVACanRsSRRBvd-1" target="bExkr5vVACanRsSRRBvd-5">
          <mxGeometry relative="1" as="geometry">
            <Array as="points">
              <mxPoint x="1200" y="185" />
              <mxPoint x="1550" y="185" />
              <mxPoint x="1550" y="95" />
            </Array>
          </mxGeometry>
        </mxCell>
        <mxCell id="bExkr5vVACanRsSRRBvd-1" value="S3 Object Lambda to Transform Data" style="sketch=0;points=[[0,0,0],[0.25,0,0],[0.5,0,0],[0.75,0,0],[1,0,0],[0,1,0],[0.25,1,0],[0.5,1,0],[0.75,1,0],[1,1,0],[0,0.25,0],[0,0.5,0],[0,0.75,0],[1,0.25,0],[1,0.5,0],[1,0.75,0]];outlineConnect=0;fontColor=#232F3E;gradientColor=#F78E04;gradientDirection=north;fillColor=#D05C17;strokeColor=#ffffff;dashed=0;verticalLabelPosition=bottom;verticalAlign=top;align=center;html=1;fontSize=12;fontStyle=0;aspect=fixed;shape=mxgraph.aws4.resourceIcon;resIcon=mxgraph.aws4.lambda;" vertex="1" parent="1">
          <mxGeometry x="1160" y="300" width="110" height="110" as="geometry" />
        </mxCell>
        <mxCell id="bExkr5vVACanRsSRRBvd-21" value="VPC" style="points=[[0,0],[0.25,0],[0.5,0],[0.75,0],[1,0],[1,0.25],[1,0.5],[1,0.75],[1,1],[0.75,1],[0.5,1],[0.25,1],[0,1],[0,0.75],[0,0.5],[0,0.25]];outlineConnect=0;gradientColor=none;html=1;whiteSpace=wrap;fontSize=12;fontStyle=0;container=1;pointerEvents=0;collapsible=0;recursiveResize=0;shape=mxgraph.aws4.group;grIcon=mxgraph.aws4.group_vpc;strokeColor=#248814;fillColor=none;verticalAlign=top;align=left;spacingLeft=30;fontColor=#AAB7B8;dashed=0;" vertex="1" parent="1">
          <mxGeometry x="1500" y="-200" width="1330" height="830" as="geometry" />
        </mxCell>
        <mxCell id="bExkr5vVACanRsSRRBvd-27" value="Private subnet" style="points=[[0,0],[0.25,0],[0.5,0],[0.75,0],[1,0],[1,0.25],[1,0.5],[1,0.75],[1,1],[0.75,1],[0.5,1],[0.25,1],[0,1],[0,0.75],[0,0.5],[0,0.25]];outlineConnect=0;gradientColor=none;html=1;whiteSpace=wrap;fontSize=12;fontStyle=0;container=1;pointerEvents=0;collapsible=0;recursiveResize=0;shape=mxgraph.aws4.group;grIcon=mxgraph.aws4.group_security_group;grStroke=0;strokeColor=#147EBA;fillColor=#E6F2F8;verticalAlign=top;align=right;spacingLeft=30;fontColor=#147EBA;dashed=0;" vertex="1" parent="bExkr5vVACanRsSRRBvd-21">
          <mxGeometry x="420" y="140" width="270" height="160" as="geometry" />
        </mxCell>
        <mxCell id="bExkr5vVACanRsSRRBvd-28" value="Private subnet" style="points=[[0,0],[0.25,0],[0.5,0],[0.75,0],[1,0],[1,0.25],[1,0.5],[1,0.75],[1,1],[0.75,1],[0.5,1],[0.25,1],[0,1],[0,0.75],[0,0.5],[0,0.25]];outlineConnect=0;gradientColor=none;html=1;whiteSpace=wrap;fontSize=12;fontStyle=0;container=1;pointerEvents=0;collapsible=0;recursiveResize=0;shape=mxgraph.aws4.group;grIcon=mxgraph.aws4.group_security_group;grStroke=0;strokeColor=#147EBA;fillColor=#E6F2F8;verticalAlign=top;align=right;spacingLeft=30;fontColor=#147EBA;dashed=0;" vertex="1" parent="bExkr5vVACanRsSRRBvd-21">
          <mxGeometry x="430" y="500" width="270" height="160" as="geometry" />
        </mxCell>
        <mxCell id="bExkr5vVACanRsSRRBvd-29" value="Private subnet" style="points=[[0,0],[0.25,0],[0.5,0],[0.75,0],[1,0],[1,0.25],[1,0.5],[1,0.75],[1,1],[0.75,1],[0.5,1],[0.25,1],[0,1],[0,0.75],[0,0.5],[0,0.25]];outlineConnect=0;gradientColor=none;html=1;whiteSpace=wrap;fontSize=12;fontStyle=0;container=1;pointerEvents=0;collapsible=0;recursiveResize=0;shape=mxgraph.aws4.group;grIcon=mxgraph.aws4.group_security_group;grStroke=0;strokeColor=#147EBA;fillColor=#E6F2F8;verticalAlign=top;align=right;spacingLeft=30;fontColor=#147EBA;dashed=0;" vertex="1" parent="bExkr5vVACanRsSRRBvd-21">
          <mxGeometry x="430" y="320" width="270" height="160" as="geometry" />
        </mxCell>
        <mxCell id="bExkr5vVACanRsSRRBvd-5" value="DynamoDB Blog Table" style="sketch=0;points=[[0,0,0],[0.25,0,0],[0.5,0,0],[0.75,0,0],[1,0,0],[0,1,0],[0.25,1,0],[0.5,1,0],[0.75,1,0],[1,1,0],[0,0.25,0],[0,0.5,0],[0,0.75,0],[1,0.25,0],[1,0.5,0],[1,0.75,0]];outlineConnect=0;fontColor=#232F3E;gradientColor=#4D72F3;gradientDirection=north;fillColor=#3334B9;strokeColor=#ffffff;dashed=0;verticalLabelPosition=bottom;verticalAlign=top;align=center;html=1;fontSize=12;fontStyle=0;aspect=fixed;shape=mxgraph.aws4.resourceIcon;resIcon=mxgraph.aws4.dynamodb;" vertex="1" parent="bExkr5vVACanRsSRRBvd-21">
          <mxGeometry x="80" y="240" width="110" height="110" as="geometry" />
        </mxCell>
        <mxCell id="bExkr5vVACanRsSRRBvd-19" value="" style="sketch=0;outlineConnect=0;fontColor=#232F3E;gradientColor=none;fillColor=#D45B07;strokeColor=none;dashed=0;verticalLabelPosition=bottom;verticalAlign=top;align=center;html=1;fontSize=12;fontStyle=0;aspect=fixed;pointerEvents=1;shape=mxgraph.aws4.auto_scaling2;" vertex="1" parent="bExkr5vVACanRsSRRBvd-21">
          <mxGeometry x="622.75" y="382" width="48" height="48" as="geometry" />
        </mxCell>
        <mxCell id="bExkr5vVACanRsSRRBvd-20" value="" style="rounded=1;arcSize=10;dashed=1;strokeColor=#d45b07;fillColor=none;gradientColor=none;dashPattern=8 4;strokeWidth=2;" vertex="1" parent="bExkr5vVACanRsSRRBvd-21">
          <mxGeometry x="400" y="110" width="340" height="570" as="geometry" />
        </mxCell>
        <mxCell id="bExkr5vVACanRsSRRBvd-26" style="edgeStyle=orthogonalEdgeStyle;rounded=0;orthogonalLoop=1;jettySize=auto;html=1;entryX=1;entryY=0.5;entryDx=0;entryDy=0;entryPerimeter=0;" edge="1" parent="bExkr5vVACanRsSRRBvd-21" source="bExkr5vVACanRsSRRBvd-24" target="bExkr5vVACanRsSRRBvd-5">
          <mxGeometry relative="1" as="geometry" />
        </mxCell>
        <mxCell id="bExkr5vVACanRsSRRBvd-24" value="VPC Endpoint" style="sketch=0;outlineConnect=0;fontColor=#232F3E;gradientColor=none;fillColor=#4D27AA;strokeColor=none;dashed=0;verticalLabelPosition=bottom;verticalAlign=top;align=center;html=1;fontSize=12;fontStyle=0;aspect=fixed;pointerEvents=1;shape=mxgraph.aws4.endpoint;" vertex="1" parent="bExkr5vVACanRsSRRBvd-21">
          <mxGeometry x="260" y="262.5" width="65" height="65" as="geometry" />
        </mxCell>
        <mxCell id="bExkr5vVACanRsSRRBvd-31" value="Public subnet" style="points=[[0,0],[0.25,0],[0.5,0],[0.75,0],[1,0],[1,0.25],[1,0.5],[1,0.75],[1,1],[0.75,1],[0.5,1],[0.25,1],[0,1],[0,0.75],[0,0.5],[0,0.25]];outlineConnect=0;gradientColor=none;html=1;whiteSpace=wrap;fontSize=12;fontStyle=0;container=1;pointerEvents=0;collapsible=0;recursiveResize=0;shape=mxgraph.aws4.group;grIcon=mxgraph.aws4.group_security_group;grStroke=0;strokeColor=#248814;fillColor=#E9F3E6;verticalAlign=top;align=left;spacingLeft=30;fontColor=#248814;dashed=0;" vertex="1" parent="bExkr5vVACanRsSRRBvd-21">
          <mxGeometry x="790" y="140" width="290" height="160" as="geometry" />
        </mxCell>
        <mxCell id="bExkr5vVACanRsSRRBvd-32" value="Public subnet" style="points=[[0,0],[0.25,0],[0.5,0],[0.75,0],[1,0],[1,0.25],[1,0.5],[1,0.75],[1,1],[0.75,1],[0.5,1],[0.25,1],[0,1],[0,0.75],[0,0.5],[0,0.25]];outlineConnect=0;gradientColor=none;html=1;whiteSpace=wrap;fontSize=12;fontStyle=0;container=1;pointerEvents=0;collapsible=0;recursiveResize=0;shape=mxgraph.aws4.group;grIcon=mxgraph.aws4.group_security_group;grStroke=0;strokeColor=#248814;fillColor=#E9F3E6;verticalAlign=top;align=left;spacingLeft=30;fontColor=#248814;dashed=0;" vertex="1" parent="bExkr5vVACanRsSRRBvd-21">
          <mxGeometry x="790" y="320" width="290" height="160" as="geometry" />
        </mxCell>
        <mxCell id="bExkr5vVACanRsSRRBvd-33" value="Public subnet" style="points=[[0,0],[0.25,0],[0.5,0],[0.75,0],[1,0],[1,0.25],[1,0.5],[1,0.75],[1,1],[0.75,1],[0.5,1],[0.25,1],[0,1],[0,0.75],[0,0.5],[0,0.25]];outlineConnect=0;gradientColor=none;html=1;whiteSpace=wrap;fontSize=12;fontStyle=0;container=1;pointerEvents=0;collapsible=0;recursiveResize=0;shape=mxgraph.aws4.group;grIcon=mxgraph.aws4.group_security_group;grStroke=0;strokeColor=#248814;fillColor=#E9F3E6;verticalAlign=top;align=left;spacingLeft=30;fontColor=#248814;dashed=0;" vertex="1" parent="bExkr5vVACanRsSRRBvd-21">
          <mxGeometry x="790" y="500" width="290" height="160" as="geometry" />
        </mxCell>
        <mxCell id="bExkr5vVACanRsSRRBvd-34" value="" style="rounded=1;arcSize=10;dashed=1;strokeColor=#d45b07;fillColor=none;gradientColor=none;dashPattern=8 4;strokeWidth=2;" vertex="1" parent="bExkr5vVACanRsSRRBvd-21">
          <mxGeometry x="765" y="110" width="340" height="570" as="geometry" />
        </mxCell>
        <mxCell id="bExkr5vVACanRsSRRBvd-35" value="Amazon EC2" style="sketch=0;outlineConnect=0;fontColor=#232F3E;gradientColor=none;strokeColor=#ffffff;fillColor=#232F3E;dashed=0;verticalLabelPosition=middle;verticalAlign=bottom;align=center;html=1;whiteSpace=wrap;fontSize=10;fontStyle=1;spacing=3;shape=mxgraph.aws4.productIcon;prIcon=mxgraph.aws4.ec2;" vertex="1" parent="bExkr5vVACanRsSRRBvd-21">
          <mxGeometry x="895" y="180" width="80" height="100" as="geometry" />
        </mxCell>
        <mxCell id="bExkr5vVACanRsSRRBvd-36" value="Amazon EC2" style="sketch=0;outlineConnect=0;fontColor=#232F3E;gradientColor=none;strokeColor=#ffffff;fillColor=#232F3E;dashed=0;verticalLabelPosition=middle;verticalAlign=bottom;align=center;html=1;whiteSpace=wrap;fontSize=10;fontStyle=1;spacing=3;shape=mxgraph.aws4.productIcon;prIcon=mxgraph.aws4.ec2;" vertex="1" parent="bExkr5vVACanRsSRRBvd-21">
          <mxGeometry x="895" y="365" width="80" height="100" as="geometry" />
        </mxCell>
        <mxCell id="bExkr5vVACanRsSRRBvd-37" value="Amazon EC2" style="sketch=0;outlineConnect=0;fontColor=#232F3E;gradientColor=none;strokeColor=#ffffff;fillColor=#232F3E;dashed=0;verticalLabelPosition=middle;verticalAlign=bottom;align=center;html=1;whiteSpace=wrap;fontSize=10;fontStyle=1;spacing=3;shape=mxgraph.aws4.productIcon;prIcon=mxgraph.aws4.ec2;" vertex="1" parent="bExkr5vVACanRsSRRBvd-21">
          <mxGeometry x="895" y="550" width="80" height="100" as="geometry" />
        </mxCell>
        <mxCell id="bExkr5vVACanRsSRRBvd-39" style="edgeStyle=orthogonalEdgeStyle;rounded=0;orthogonalLoop=1;jettySize=auto;html=1;" edge="1" parent="bExkr5vVACanRsSRRBvd-21" source="bExkr5vVACanRsSRRBvd-38" target="bExkr5vVACanRsSRRBvd-24">
          <mxGeometry relative="1" as="geometry">
            <Array as="points">
              <mxPoint x="350" y="230" />
              <mxPoint x="350" y="295" />
            </Array>
          </mxGeometry>
        </mxCell>
        <mxCell id="bExkr5vVACanRsSRRBvd-58" style="edgeStyle=orthogonalEdgeStyle;rounded=0;orthogonalLoop=1;jettySize=auto;html=1;" edge="1" parent="bExkr5vVACanRsSRRBvd-21" source="bExkr5vVACanRsSRRBvd-38" target="bExkr5vVACanRsSRRBvd-35">
          <mxGeometry relative="1" as="geometry" />
        </mxCell>
        <mxCell id="bExkr5vVACanRsSRRBvd-38" value="Amazon EC2" style="sketch=0;outlineConnect=0;fontColor=#232F3E;gradientColor=none;strokeColor=#ffffff;fillColor=#232F3E;dashed=0;verticalLabelPosition=middle;verticalAlign=bottom;align=center;html=1;whiteSpace=wrap;fontSize=10;fontStyle=1;spacing=3;shape=mxgraph.aws4.productIcon;prIcon=mxgraph.aws4.ec2;" vertex="1" parent="bExkr5vVACanRsSRRBvd-21">
          <mxGeometry x="515" y="180" width="80" height="100" as="geometry" />
        </mxCell>
        <mxCell id="bExkr5vVACanRsSRRBvd-40" value="Amazon EC2" style="sketch=0;outlineConnect=0;fontColor=#232F3E;gradientColor=none;strokeColor=#ffffff;fillColor=#232F3E;dashed=0;verticalLabelPosition=middle;verticalAlign=bottom;align=center;html=1;whiteSpace=wrap;fontSize=10;fontStyle=1;spacing=3;shape=mxgraph.aws4.productIcon;prIcon=mxgraph.aws4.ec2;" vertex="1" parent="bExkr5vVACanRsSRRBvd-21">
          <mxGeometry x="515" y="365" width="80" height="100" as="geometry" />
        </mxCell>
        <mxCell id="bExkr5vVACanRsSRRBvd-43" value="" style="sketch=0;outlineConnect=0;fontColor=#232F3E;gradientColor=none;fillColor=#D45B07;strokeColor=none;dashed=0;verticalLabelPosition=bottom;verticalAlign=top;align=center;html=1;fontSize=12;fontStyle=0;aspect=fixed;pointerEvents=1;shape=mxgraph.aws4.auto_scaling2;" vertex="1" parent="bExkr5vVACanRsSRRBvd-21">
          <mxGeometry x="1020" y="376" width="48" height="48" as="geometry" />
        </mxCell>
        <mxCell id="bExkr5vVACanRsSRRBvd-44" value="Amazon EC2" style="sketch=0;outlineConnect=0;fontColor=#232F3E;gradientColor=none;strokeColor=#ffffff;fillColor=#232F3E;dashed=0;verticalLabelPosition=middle;verticalAlign=bottom;align=center;html=1;whiteSpace=wrap;fontSize=10;fontStyle=1;spacing=3;shape=mxgraph.aws4.productIcon;prIcon=mxgraph.aws4.ec2;" vertex="1" parent="bExkr5vVACanRsSRRBvd-21">
          <mxGeometry x="515" y="530" width="80" height="100" as="geometry" />
        </mxCell>
        <mxCell id="bExkr5vVACanRsSRRBvd-47" style="edgeStyle=orthogonalEdgeStyle;rounded=0;orthogonalLoop=1;jettySize=auto;html=1;" edge="1" parent="bExkr5vVACanRsSRRBvd-21" source="bExkr5vVACanRsSRRBvd-46" target="bExkr5vVACanRsSRRBvd-35">
          <mxGeometry relative="1" as="geometry">
            <Array as="points">
              <mxPoint x="1249" y="220" />
            </Array>
          </mxGeometry>
        </mxCell>
        <mxCell id="bExkr5vVACanRsSRRBvd-48" style="edgeStyle=orthogonalEdgeStyle;rounded=0;orthogonalLoop=1;jettySize=auto;html=1;" edge="1" parent="bExkr5vVACanRsSRRBvd-21" source="bExkr5vVACanRsSRRBvd-46" target="bExkr5vVACanRsSRRBvd-36">
          <mxGeometry relative="1" as="geometry">
            <Array as="points">
              <mxPoint x="1093" y="400" />
              <mxPoint x="1093" y="430" />
            </Array>
          </mxGeometry>
        </mxCell>
        <mxCell id="bExkr5vVACanRsSRRBvd-49" style="edgeStyle=orthogonalEdgeStyle;rounded=0;orthogonalLoop=1;jettySize=auto;html=1;" edge="1" parent="bExkr5vVACanRsSRRBvd-21" source="bExkr5vVACanRsSRRBvd-46" target="bExkr5vVACanRsSRRBvd-37">
          <mxGeometry relative="1" as="geometry">
            <Array as="points">
              <mxPoint x="1249" y="600" />
            </Array>
          </mxGeometry>
        </mxCell>
        <mxCell id="bExkr5vVACanRsSRRBvd-46" value="" style="sketch=0;outlineConnect=0;fontColor=#232F3E;gradientColor=none;fillColor=#4D27AA;strokeColor=none;dashed=0;verticalLabelPosition=bottom;verticalAlign=top;align=center;html=1;fontSize=12;fontStyle=0;aspect=fixed;pointerEvents=1;shape=mxgraph.aws4.application_load_balancer;" vertex="1" parent="bExkr5vVACanRsSRRBvd-21">
          <mxGeometry x="1210" y="356" width="78" height="78" as="geometry" />
        </mxCell>
        <mxCell id="bExkr5vVACanRsSRRBvd-55" style="edgeStyle=orthogonalEdgeStyle;rounded=0;orthogonalLoop=1;jettySize=auto;html=1;" edge="1" parent="1" source="bExkr5vVACanRsSRRBvd-50" target="bExkr5vVACanRsSRRBvd-46">
          <mxGeometry relative="1" as="geometry" />
        </mxCell>
        <mxCell id="bExkr5vVACanRsSRRBvd-50" value="https://www.mywebsite.com" style="sketch=0;points=[[0,0,0],[0.25,0,0],[0.5,0,0],[0.75,0,0],[1,0,0],[0,1,0],[0.25,1,0],[0.5,1,0],[0.75,1,0],[1,1,0],[0,0.25,0],[0,0.5,0],[0,0.75,0],[1,0.25,0],[1,0.5,0],[1,0.75,0]];outlineConnect=0;fontColor=#232F3E;gradientColor=#945DF2;gradientDirection=north;fillColor=#5A30B5;strokeColor=#ffffff;dashed=0;verticalLabelPosition=bottom;verticalAlign=top;align=center;html=1;fontSize=12;fontStyle=0;aspect=fixed;shape=mxgraph.aws4.resourceIcon;resIcon=mxgraph.aws4.route_53;" vertex="1" parent="1">
          <mxGeometry x="2940" y="156" width="78" height="78" as="geometry" />
        </mxCell>
        <mxCell id="bExkr5vVACanRsSRRBvd-54" style="edgeStyle=orthogonalEdgeStyle;rounded=0;orthogonalLoop=1;jettySize=auto;html=1;entryX=0.5;entryY=0;entryDx=0;entryDy=0;entryPerimeter=0;" edge="1" parent="1" source="bExkr5vVACanRsSRRBvd-53" target="bExkr5vVACanRsSRRBvd-50">
          <mxGeometry relative="1" as="geometry" />
        </mxCell>
        <mxCell id="bExkr5vVACanRsSRRBvd-53" value="" style="sketch=0;points=[[0,0,0],[0.25,0,0],[0.5,0,0],[0.75,0,0],[1,0,0],[0,1,0],[0.25,1,0],[0.5,1,0],[0.75,1,0],[1,1,0],[0,0.25,0],[0,0.5,0],[0,0.75,0],[1,0.25,0],[1,0.5,0],[1,0.75,0]];outlineConnect=0;fontColor=#232F3E;gradientColor=#F54749;gradientDirection=north;fillColor=#C7131F;strokeColor=#ffffff;dashed=0;verticalLabelPosition=bottom;verticalAlign=top;align=center;html=1;fontSize=12;fontStyle=0;aspect=fixed;shape=mxgraph.aws4.resourceIcon;resIcon=mxgraph.aws4.certificate_manager_3;" vertex="1" parent="1">
          <mxGeometry x="2940" y="10" width="78" height="78" as="geometry" />
        </mxCell>
        <mxCell id="bExkr5vVACanRsSRRBvd-57" style="edgeStyle=orthogonalEdgeStyle;rounded=0;orthogonalLoop=1;jettySize=auto;html=1;entryX=1;entryY=0.5;entryDx=0;entryDy=0;entryPerimeter=0;" edge="1" parent="1" source="bExkr5vVACanRsSRRBvd-56" target="bExkr5vVACanRsSRRBvd-50">
          <mxGeometry relative="1" as="geometry" />
        </mxCell>
        <mxCell id="bExkr5vVACanRsSRRBvd-56" value="" style="sketch=0;html=1;dashed=0;whitespace=wrap;fillColor=#2875E2;strokeColor=#ffffff;points=[[0.005,0.63,0],[0.1,0.2,0],[0.9,0.2,0],[0.5,0,0],[0.995,0.63,0],[0.72,0.99,0],[0.5,1,0],[0.28,0.99,0]];verticalLabelPosition=bottom;align=center;verticalAlign=top;shape=mxgraph.kubernetes.icon;prIcon=user" vertex="1" parent="1">
          <mxGeometry x="3190" y="150" width="90" height="90" as="geometry" />
        </mxCell>
      </root>
    </mxGraphModel>
  </diagram>
</mxfile>
